:SAMPLES-PER-SECOND 30
:FULLY-SPECIFIED
:DEGREES
477
root  -0.0254948 37.8927 11.5536 146.989 83.0523 154.981
RightUpLeg  14.7634 -14.4364 -9.97525
RightLeg  41.577 4.36438 3.8806
RightFoot  -9.4967 -0.358703 20.9993
RightToes  5.82063e-011 0 -3.6325e-017
Spine  8.92448 2.09062 3.07202
Spine1  9.93607 4.24433 -9.18412
HEad  -4.05291 -1.33596 -0.809041
LeftShoulder1  0.329353 2.56669 -29.025
LeftArm  -4.43121 12.3753 -38.6426
LeftForeArm  23.2791 -11.6549 -6.90486
LeftHand  0.000272715 3.47052 -1.15199
RightShoulder  -0.38445 -4.66487 26.1277
RightArm  12.9226 2.24067 50.9058
RightForeArm  3.85038 14.5205 5.6482
RightHand  -0.671676 5.42238 -7.51012
LeftUpLeg  -14.2065 9.29812 -11.6867
LeftLeg  21.7215 6.71475 3.14161
LeftFoot  -0.850986 -1.32035 14.3406
LeftToes  2.58842e-009 -1.78069e-010 3.24654e-012
478
root  1.12233 37.9029 11.4736 135.777 82.7859 143.775
RightUpLeg  7.64107 -10.2339 -10.877
RightLeg  53.4696 4.63995 6.38056
RightFoot  3.54261 -2.23032 17.6101
RightToes  5.82063e-011 0 -3.6325e-017
Spine  9.22695 2.11855 1.25032
Spine1  10.101 4.12165 -9.61053
HEad  -4.31152 -0.559851 -1.46912
LeftShoulder1  0.294918 2.66714 -29.1198
LeftArm  -6.14972 11.4033 -39.2762
LeftForeArm  24.7246 -10.0271 -6.90878
LeftHand  -0.000288976 3.42631 -0.853788
RightShoulder  -0.346699 -4.55399 25.943
RightArm  15.0841 2.12227 52.0789
RightForeArm  3.67663 14.1884 6.18985
RightHand  -0.662217 5.54497 -7.33058
LeftUpLeg  -12.7648 10.0918 -12.6083
LeftLeg  22.9199 6.70911 3.23948
LeftFoot  -3.02041 -0.99434 13.8513
LeftToes  2.58842e-009 -1.78069e-010 3.24654e-012
479
root  2.17318 37.8503 11.4159 129.834 81.9786 138.074
RightUpLeg  1.30428 -6.72607 -11.576
RightLeg  62.3301 4.7899 9.25376
RightFoot  11.0848 -2.52985 12.9294
RightToes  5.82063e-011 0 -3.6325e-017
Spine  9.8372 1.97446 -0.955396
Spine1  10.5756 3.48529 -9.33102
HEad  -4.68183 -0.206836 -2.08713
LeftShoulder1  0.319271 2.60427 -29.3727
LeftArm  -5.51272 10.1378 -39.73
LeftForeArm  25.3175 -9.33209 -7.36469
LeftHand  -0.0104403 4.04025 -1.09923
RightShoulder  -0.355552 -4.57955 25.9981
RightArm  17.3677 2.53352 52.4959
RightForeArm  3.11429 14.6895 6.43159
RightHand  -0.706178 5.68727 -7.70603
LeftUpLeg  -11.3255 9.79687 -13.4277
LeftLeg  24.4139 7.19662 3.62743
LeftFoot  -5.3262 -0.677022 13.4193
LeftToes  2.58842e-009 -1.78069e-010 3.24654e-012
480
root  3.25304 37.9332 11.3196 131.897 81.4862 140.808
RightUpLeg  -3.17673 -3.85485 -11.5406
RightLeg  67.0735 4.03053 9.75176
RightFoot  6.89802 -2.06652 13.1168
RightToes  5.82063e-011 0 -3.6325e-017
Spine  10.6808 1.56248 -2.05139
Spine1  10.8507 2.6071 -8.59645
HEad  -5.49439 0.416515 -2.50427
LeftShoulder1  0.335122 2.56038 -29.4071
LeftArm  -4.60177 8.46168 -40.499
LeftForeArm  27.3297 -8.72242 -7.93467
LeftHand  -0.00986738 3.82591 -0.836476
RightShoulder  -0.383168 -4.65377 26.3112
RightArm  18.7073 2.05592 52.3745
RightForeArm  3.27712 16.2845 5.98975
RightHand  -0.701435 5.40215 -7.83298
LeftUpLeg  -8.80732 8.82461 -13.1866
LeftLeg  24.8472 7.75605 3.87751
LeftFoot  -7.25864 -0.413722 12.7973
LeftToes  2.58842e-009 -1.78069e-010 3.24654e-012
481
root  4.34118 38.0982 11.2196 136.639 81.28 145.841
RightUpLeg  -7.80291 -1.26153 -10.929
RightLeg  68.2683 3.57962 9.18173
RightFoot  6.29095 -1.67215 11.0208
RightToes  5.82063e-011 0 -3.6325e-017
Spine  10.9287 1.24406 -2.55577
Spine1  10.9723 1.94303 -7.67923
HEad  -5.6479 1.03684 -2.65214
LeftShoulder1  0.36701 2.46422 -29.1793
LeftArm  -3.70622 6.7776 -41.5024
LeftForeArm  29.7451 -8.47632 -8.38263
LeftHand  -0.00455403 2.58927 -0.433973
RightShoulder  -0.396104 -4.68363 26.5639
RightArm  19.329 1.36504 51.6812
RightForeArm  1.94914 17.7238 5.56877
RightHand  -0.596875 5.05025 -6.93469
LeftUpLeg  -6.21971 8.05834 -12.3627
LeftLeg  24.3499 7.90705 3.62853
LeftFoot  -8.74112 -0.230719 12.437
LeftToes  2.58842e-009 -1.78069e-010 3.24654e-012
482
root  5.43613 38.2708 11.1164 142.218 80.6315 151.572
RightUpLeg  -11.501 0.731191 -10.3733
RightLeg  66.1202 3.03577 6.89592
RightFoot  4.86471 -1.25516 9.03444
RightToes  5.82063e-011 0 -3.6325e-017
Spine  10.996 0.896024 -3.18813
Spine1  10.9691 1.19231 -6.47187
HEad  -5.54522 0.865117 -2.34325
LeftShoulder1  0.389348 2.39879 -29.1148
LeftArm  -3.0251 5.33818 -42.505
LeftForeArm  30.4861 -9.13584 -8.44356
LeftHand  -0.0216396 2.39783 0.350147
RightShoulder  -0.323452 -4.47723 26.0826
RightArm  19.2874 -0.100202 51.2216
RightForeArm  0.181253 19.6446 5.12845
RightHand  -0.644112 5.31404 -7.26614
LeftUpLeg  -3.57327 7.16775 -11.6084
LeftLeg  23.3827 7.73912 3.05735
LeftFoot  -9.91474 -0.0895128 11.9514
LeftToes  2.58842e-009 -1.78069e-010 3.24654e-012
483
root  6.55773 38.499 10.9778 150.181 79.6091 159.624
RightUpLeg  -13.8802 2.36257 -9.53448
RightLeg  60.6148 3.01399 5.3037
RightFoot  3.41915 -0.962792 7.60434
RightToes  5.82063e-011 0 -3.6325e-017
Spine  10.9547 0.168043 -3.01847
Spine1  10.8399 0.336448 -5.6156
HEad  -5.35953 0.797879 -1.95918
LeftShoulder1  0.392029 2.37922 -28.7311
LeftArm  -0.810973 4.43981 -43.2644
LeftForeArm  28.6216 -11.0171 -8.3356
LeftHand  -0.0112942 2.64733 -0.118547
RightShoulder  -0.402232 -4.70447 26.54
RightArm  19.7921 -1.26914 49.9558
RightForeArm  -1.72519 22.1592 5.00238
RightHand  -0.820113 6.73912 -8.17873
LeftUpLeg  -0.61022 6.34251 -10.5123
LeftLeg  21.6218 7.07232 2.28147
LeftFoot  -10.6736 -0.00237313 11.5025
LeftToes  2.58842e-009 -1.78069e-010 3.24654e-012
484
root  7.6407 38.6252 10.8201 156.33 78.3624 165.686
RightUpLeg  -15.5129 3.17197 -8.97619
RightLeg  52.5855 2.94358 3.7685
RightFoot  2.05763 -0.770531 6.67804
RightToes  5.82063e-011 0 -3.6325e-017
Spine  10.986 -0.432984 -3.34047
Spine1  10.4439 -0.634453 -3.95898
HEad  -5.07837 0.790978 -2.12731
LeftShoulder1  0.391273 2.38427 -28.8234
LeftArm  2.01329 3.65135 -43.6882
LeftForeArm  24.9945 -13.3779 -7.81119
LeftHand  -0.00532251 2.29209 -0.316894
RightShoulder  -0.374708 -4.6195 26.5583
RightArm  18.7558 -2.51846 48.5884
RightForeArm  -0.295512 24.5216 5.24189
RightHand  -0.815414 6.52049 -8.255
LeftUpLeg  2.06457 5.92086 -9.56235
LeftLeg  19.9483 5.9311 1.60841
LeftFoot  -11.7986 0.117234 11.5518
LeftToes  2.58842e-009 -1.78069e-010 3.24654e-012
485
root  8.72465 38.6923 10.6559 159.142 77.385 168.359
RightUpLeg  -16.0699 3.45311 -8.70779
RightLeg  42.2139 2.37193 2.06485
RightFoot  0.556734 -0.714872 6.89598
RightToes  5.82063e-011 0 -3.6325e-017
Spine  10.7716 -0.7373 -3.1029
Spine1  10.5477 -0.953973 -3.25626
HEad  -5.95499 0.304817 -2.19375
LeftShoulder1  0.376709 2.42431 -28.7678
LeftArm  4.0355 2.51082 -44.3869
LeftForeArm  22.0011 -15.4472 -7.01523
LeftHand  -0.0457206 1.50888 1.13696
RightShoulder  -0.375041 -4.63395 26.1687
RightArm  16.8664 -3.95661 47.9218
RightForeArm  1.16141 26.6483 5.67255
RightHand  -0.702155 5.67476 -7.67138
LeftUpLeg  4.37667 5.97527 -8.90656
LeftLeg  18.8758 4.79392 1.13273
LeftFoot  -12.8089 0.223437 11.3703
LeftToes  2.58842e-009 -1.78069e-010 3.24654e-012
486
root  9.82451 38.7076 10.469 160.47 76.6281 169.204
RightUpLeg  -15.9276 2.67026 -8.48979
RightLeg  29.977 1.57837 0.75736
RightFoot  -0.0358154 -0.779295 7.85223
RightToes  5.82063e-011 0 -3.6325e-017
Spine  10.2145 -0.939206 -3.17109
Spine1  10.5851 -1.19155 -2.32797
HEad  -6.51887 -0.0732621 -2.11894
LeftShoulder1  0.357119 2.48003 -28.7598
LeftArm  6.0028 1.55796 -44.6799
LeftForeArm  18.6053 -17.3559 -6.20168
LeftHand  -0.0685126 0.862492 1.67452
RightShoulder  -0.394117 -4.68795 26.3043
RightArm  15.4663 -5.1292 46.8498
RightForeArm  1.97094 28.4956 6.0641
RightHand  -0.775398 6.20011 -8.07974
LeftUpLeg  6.42871 6.04934 -8.52996
LeftLeg  17.5998 3.89009 0.679656
LeftFoot  -13.8033 0.327168 11.3046
LeftToes  2.58842e-009 -1.78069e-010 3.24654e-012
487
root  10.9604 38.6695 10.2793 160.339 75.9169 168.592
RightUpLeg  -15.0275 -0.972888 -7.85834
RightLeg  17.0343 3.16193 0.604547
RightFoot  0.0160962 -0.857829 8.60243
RightToes  5.82063e-011 0 -3.6325e-017
Spine  9.80171 -1.10462 -3.4261
Spine1  10.4275 -1.3964 -1.49924
HEad  -6.74604 -0.224454 -2.15189
LeftShoulder1  0.335972 2.54499 -28.927
LeftArm  7.85516 0.951279 -44.626
LeftForeArm  16.2988 -19.5667 -5.20672
LeftHand  -0.050309 2.26589 1.45004
RightShoulder  -0.374906 -4.62543 26.404
RightArm  15.9015 -5.66086 45.9439
RightForeArm  1.60232 29.0864 6.22771
RightHand  -0.772679 6.26547 -8.00577
LeftUpLeg  8.60758 6.32638 -8.28194
LeftLeg  16.2901 2.93642 0.0849273
LeftFoot  -14.7363 0.424672 11.2877
LeftToes  2.58842e-009 -1.78069e-010 3.24654e-012
488
root  12.1142 38.5958 10.0686 159.835 75.0935 167.469
RightUpLeg  -13.7589 -7.19128 -6.50192
RightLeg  4.45097 6.29258 0.522267
RightFoot  -0.399103 -0.939612 9.82119
RightToes  5.82063e-011 0 -3.6325e-017
Spine  9.02599 -1.27291 -3.05734
Spine1  10.656 -1.36253 -1.4816
HEad  -7.02043 -1.33879 -2.07754
LeftShoulder1  0.396417 2.36218 -28.587
LeftArm  8.35344 0.333859 -44.7752
LeftForeArm  15.6543 -20.9446 -4.63672
LeftHand  -0.058656 2.0633 1.63584
RightShoulder  -0.380296 -4.64384 26.3481
RightArm  15.5094 -6.26204 45.8558
RightForeArm  1.8295 28.8121 6.14907
RightHand  -0.724129 5.84158 -7.78303
LeftUpLeg  10.7942 6.34947 -8.32077
LeftLeg  14.773 2.10772 -0.354303
LeftFoot  -15.6668 0.510297 10.9936
LeftToes  2.58842e-009 -1.78069e-010 3.24654e-012
489
root  13.3612 38.3942 9.86449 158.697 74.3941 166.376
RightUpLeg  -12.0627 -8.81237 -6.35525
RightLeg  -4.19675 3.04113 1.37979
RightFoot  -1.97181 -1.0201 12.1383
RightToes  5.82063e-011 0 -3.6325e-017
Spine  8.63027 -1.33945 -2.89697
Spine1  11.0622 -1.34574 -1.5208
HEad  -7.94312 -3.30336 -1.29281
LeftShoulder1  0.352006 2.49076 -28.6132
LeftArm  8.95625 -0.6396 -44.6934
LeftForeArm  14.8324 -21.5307 -4.49578
LeftHand  -0.088233 1.25456 2.3121
RightShoulder  -0.383938 -4.64631 26.5965
RightArm  15.6237 -6.59658 45.4039
RightForeArm  0.897677 28.4654 6.11508
RightHand  -0.81565 6.75826 -8.10994
LeftUpLeg  13.3947 6.47299 -8.29582
LeftLeg  14.2332 1.28206 -0.467174
LeftFoot  -17.3991 0.657809 10.4148
LeftToes  2.58842e-009 -1.78069e-010 3.24654e-012
490
root  14.6175 38.1457 9.69929 157.605 74.1389 165.422
RightUpLeg  -12.3571 -8.04963 -5.66147
RightLeg  -4.15234 -2.94171 1.602
RightFoot  -3.00305 -0.769163 10.1005
RightToes  5.82063e-011 0 -3.6325e-017
Spine  8.67004 -1.14592 -2.68628
Spine1  11.3419 -1.19276 -1.23915
HEad  -8.52935 -3.7765 -1.70576
LeftShoulder1  0.359055 2.47536 -28.778
LeftArm  8.08183 -1.35594 -44.8271
LeftForeArm  15.3159 -21.425 -4.48621
LeftHand  -0.0639677 1.71697 1.75001
RightShoulder  -0.35031 -4.54596 26.5399
RightArm  15.4486 -6.75173 45.2759
RightForeArm  1.20992 28.0888 6.00867
RightHand  -0.682083 6.12416 -7.19704
LeftUpLeg  15.8015 6.99611 -7.89904
LeftLeg  14.303 0.279266 -0.644008
LeftFoot  -19.0864 0.7905 9.95111
LeftToes  2.58842e-009 -1.78069e-010 3.24654e-012
491
root  15.8643 37.9484 9.47582 157.893 74.4016 165.489
RightUpLeg  -13.5089 -8.13798 -4.50481
RightLeg  0.447636 -7.80582 2.29869
RightFoot  -0.179624 -0.555811 6.34802
RightToes  5.82063e-011 0 -3.6325e-017
Spine  8.48438 -1.13898 -1.46481
Spine1  11.7681 -1.13115 -1.26903
HEad  -8.44475 -4.05279 -2.58993
LeftShoulder1  0.298669 2.65367 -29.0391
LeftArm  7.05378 -1.44529 -44.863
LeftForeArm  14.9117 -21.0241 -4.60444
LeftHand  -0.104444 1.52607 2.95139
RightShoulder  -0.317282 -4.4463 26.473
RightArm  16.4104 -6.0057 45.5519
RightForeArm  0.505719 26.7358 5.72742
RightHand  -0.684554 5.87437 -7.36304
LeftUpLeg  17.7743 7.1486 -7.5172
LeftLeg  14.2092 0.128064 -0.387434
LeftFoot  -20.2358 0.826396 9.03353
LeftToes  2.58842e-009 -1.78069e-010 3.24654e-012
